# xmcd CD database file
# Copyright (C) 1995-1998 Ti Kan
#
# Track frame offsets:
#	150
#	12370
#	27757
#	43742
#	54715
#	67075
#	78310
#	96197
#	106695
#	114565
#	127305
#	142242
#	154667
#	167245
#	176665
#	188540
#	201587
#	211150
#	223487
#	234597
#	247305
#	261957
#
# Disc length: 3649 seconds
#
# Revision: 1
# Processed by: cddbd v1.4PL0 Copyright (c) Steve Scherf et al.
# Submitted via: CDex 1.30
#
DISCID=550e3f16
DTITLE=Country - L'anthologie de la country CD 2
DYEAR=2002
DGENRE=Country
TTITLE0=Harry Nilsson - Everybody's Talkin'
TTITLE1=Nitty  Gritty Dirt band - Jambalaya On The Bayou
TTITLE2=Billie Jo Spears - Blanket On The Ground
TTITLE3=Roger Miller - Husbands And Wives
TTITLE4=Merle haggard - Okie From Muskogee
TTITLE5=The Kendalls - Heaven's Just A Sin Away
TTITLE6=Bobby Goldsboro - Money
TTITLE7=Faron Young - Live fast, Love Hard, Die Young
TTITLE8=Susan Raye - I've Got A Happy Heart
TTITLE9=Don Williams - You're My Best Friend
TTITLE10=Kenny Rogers - Need The Call
TTITLE11=Ray Price - The Same Old Me
TTITLE12=Jo Ann Houston - Blue Blue Day
TTITLE13=Glen Campbell And Robbie Gentry - Let It Be Me
TTITLE14=Bobby Goldsboro - Watchin' Sorry Grow
TTITLE15=River Road - Nicko Jack
TTITLE16=Donna Fargo - Stickers And Stones
TTITLE17=Johnny Cash - I Walk The Line
TTITLE18=Freddie Hart - Easy Lovin'
TTITLE19=Susan Raye -L.A. International Airport
TTITLE20=Asleep At The Wheel - The Letter That Johnny Walker Road
TTITLE21=Kenny Rogers - Me And Nobby McGee
EXTD=\nYEAR: 2002  ID3G:   2
EXTT0=
EXTT1=
EXTT2=
EXTT3=
EXTT4=
EXTT5=
EXTT6=
EXTT7=
EXTT8=
EXTT9=
EXTT10=
EXTT11=
EXTT12=
EXTT13=
EXTT14=
EXTT15=
EXTT16=
EXTT17=
EXTT18=
EXTT19=
EXTT20=
EXTT21=
PLAYORDER=
